<svg xmlns="http://www.w3.org/2000/svg" xmlns:xlink="http://www.w3.org/1999/xlink" width="1905" height="1086" viewBox="0 0 1905 1086">
  <defs>
    <clipPath id="clip-Mobile">
      <rect width="1905" height="1086"/>
    </clipPath>
  </defs>
  <g id="Mobile" clip-path="url(#clip-Mobile)">
    <path id="Subtraction_14" data-name="Subtraction 14" d="M463.3,599.72H161.4A46.344,46.344,0,0,1,115,553.4V-53.679a45.923,45.923,0,0,1,3.534-17.728A45.872,45.872,0,0,1,128.6-86.428a45.894,45.894,0,0,1,15.041-10.047A46.2,46.2,0,0,1,161.4-100H463.3a46.148,46.148,0,0,1,32.82,13.572A46.048,46.048,0,0,1,506.17-71.407,46.106,46.106,0,0,1,509.7-53.679V42.963a11.53,11.53,0,0,1,9.236,11.29v48.328a11.521,11.521,0,0,1-9.236,11.286v12.884a11.551,11.551,0,0,1,9.236,11.29v88.67A11.552,11.552,0,0,1,509.7,238V553.4a46.349,46.349,0,0,1-46.4,46.317ZM312.346,515.943a35.683,35.683,0,1,0,35.742,35.681A35.752,35.752,0,0,0,312.346,515.943ZM134.506-2.257V501.977H490.191V-2.257Zm161.907-54.3a9.324,9.324,0,0,0-9.321,9.306,9.327,9.327,0,0,0,9.321,9.313h60.609a9.323,9.323,0,0,0,9.32-9.306,9.327,9.327,0,0,0-9.32-9.313Zm-28.746,0a9.325,9.325,0,0,0-9.32,9.309,9.325,9.325,0,0,0,9.32,9.309,9.327,9.327,0,0,0,9.324-9.309A9.327,9.327,0,0,0,267.667-56.565Z" transform="translate(549.06 332.28)" fill="#4a90e2"/>
  </g>
</svg>
