<svg xmlns="http://www.w3.org/2000/svg" xmlns:xlink="http://www.w3.org/1999/xlink" width="1905" height="1086" viewBox="0 0 1905 1086">
  <defs>
    <clipPath id="clip-Design">
      <rect width="1905" height="1086"/>
    </clipPath>
  </defs>
  <g id="Design" clip-path="url(#clip-Design)">
    <g id="Group_244" data-name="Group 244" transform="translate(-738.812 -1220.785) rotate(-6)">
      <path id="Subtraction_8" data-name="Subtraction 8" d="M250.166,618.464h0a181.969,181.969,0,0,1-71.8-14.994c-21.953-9.378-43.11-23.086-62.883-40.743a304.009,304.009,0,0,1-37.6-40.441,382.912,382.912,0,0,1-46.406-78.2C-3.283,365.893-9.485,279.887,14.02,201.908c11.3-37.5,28.865-71.351,52.2-100.622A262.716,262.716,0,0,1,152.17,30.51C191.7,10.265,233.334,0,275.906,0a276.614,276.614,0,0,1,61.52,7.04,297.272,297.272,0,0,1,48.227,15.488c23.344,9.758,38.5,19.6,42.586,22.389.169.115.213.145.219.147,7.057,5.193,13.867,10.615,20.244,16.116a230.2,230.2,0,0,1,33.354,36.09c15.778,21.558,25.669,44.434,29.4,67.992a131.776,131.776,0,0,1-4.077,59.619A119.225,119.225,0,0,1,486.983,264.3c-8.119,10.133-17.288,17.4-25.817,20.474-32.629,11.73-50.958,25.946-59.431,46.092-9.634,22.908-6.911,54.462,8.568,99.3,10.04,29.091,5.8,65.546-11.641,100.016s-45.268,61.381-76.337,73.793C298.329,613.59,274.051,618.464,250.166,618.464Zm6.688-232.389A87.325,87.325,0,0,0,169.626,473.3,87.45,87.45,0,0,0,256.96,560.74a87.323,87.323,0,0,0,87.224-87.224,87.45,87.45,0,0,0-87.33-87.441ZM93.3,306.1a43.614,43.614,0,0,0,0,87.229h.054a43.271,43.271,0,0,0,30.8-12.757,43.83,43.83,0,0,0,10.2-16.1l.04-.112a43.644,43.644,0,0,0-40.25-58.255Q93.726,306.1,93.3,306.1ZM118.71,138.9a43.665,43.665,0,1,0,0,87.33h.036a43.665,43.665,0,0,0,43.631-43.718v-.275l0-.24v-.028a43.208,43.208,0,0,0-9.179-26.232l-.088-.112-.018-.023-.028-.036a43.774,43.774,0,0,0-3.474-3.914c-.973-.972-2.006-1.909-3.068-2.785l-.176-.145-.142-.116-.021-.017a43.176,43.176,0,0,0-26.6-9.682l-.262,0h-.11l-.156,0h-.34ZM394.993,106.19A43.661,43.661,0,0,0,351.382,149.8,43.869,43.869,0,0,0,395.1,193.631l-.111-.218h.17a43.641,43.641,0,0,0,43.553-43.395,43.867,43.867,0,0,0-43.723-43.829ZM246.09,142.55h.129a43.612,43.612,0,1,0,0-87.224h-.276a43.612,43.612,0,1,0,.015,87.225h.132Z" transform="translate(1147.997 1715.338)" fill="#4a90e2"/>
      <path id="Union_5" data-name="Union 5" d="M.378,648.075c20.346-53.152,33.447-64.266,34.251-65.8a110.14,110.14,0,0,1-33.3,22.806c4.683-29.465,7.535-58.923,27.223-82.834,27.3-33.116,40.324-36.334,61.4-48.322C93.034,450.751,113.38,400.817,145,338.453a2.735,2.735,0,0,0,0-.8l1.245-2.342,52.108,30.123-1.535,2.263-.441.658c-37.394,56.108-69.612,97.361-88.656,112.931a121.58,121.58,0,0,1,2.515,45.571,133.463,133.463,0,0,1-17.27,54.909c-21.519,35.6-56.132,50.81-91.411,69.891a2.2,2.2,0,0,1-.953.334C-.14,651.988-.173,650.881.378,648.075ZM146.6,335.453c16.908-33.261,36.6-69.964,59.208-108.2C284.267,92.656,360.752-8.891,376.632.617S341.8,126,263.341,260.593c-21.96,38.236-44.428,73.694-64.991,104.837Z" transform="translate(1467.84 1529)" fill="#fca70c" stroke="#fca70c" stroke-width="21"/>
      <path id="Path_81" data-name="Path 81" d="M155.6,212.937l.322-.537Z" transform="translate(1488.905 2098.053)" fill="#253858"/>
      <path id="Path_83" data-name="Path 83" d="M148.586,208.891h0q-.014-.3,0-.591Z" transform="translate(1458.214 2080.132)" fill="#253858"/>
    </g>
  </g>
</svg>
