<svg xmlns="http://www.w3.org/2000/svg" xmlns:xlink="http://www.w3.org/1999/xlink" width="1905" height="1086" viewBox="0 0 1905 1086">
  <defs>
    <clipPath id="clip-laptop">
      <rect width="1905" height="1086"/>
    </clipPath>
  </defs>
  <g id="laptop" clip-path="url(#clip-laptop)">
    <g id="Group_181" data-name="Group 181" transform="translate(149 -1577.114)">
      <g id="Group_131" data-name="Group 131" transform="translate(380 1829.114)">
        <path id="Exclusion_4" data-name="Exclusion 4" d="M822.236,558.162H22.326A22.353,22.353,0,0,1,0,535.833V22.326A22.352,22.352,0,0,1,22.326,0h799.91a22.352,22.352,0,0,1,22.326,22.326V535.833A22.353,22.353,0,0,1,822.236,558.162ZM44.114,54.511v467.03H800.446V54.511Zm378.166-38.7A11.392,11.392,0,1,0,433.674,27.2,11.4,11.4,0,0,0,422.28,15.807Z" transform="translate(1.223)" fill="#4a90e2"/>
        <path id="Union_4" data-name="Union 4" d="M789.471,73.227H53.243C39.022,73.227,25.651,67,15.6,55.686A63.458,63.458,0,0,1,0,13.342,14.159,14.159,0,0,1,3.473,3.906,11.148,11.148,0,0,1,11.857,0H273.332a9.953,9.953,0,0,1,8.926,5.614,57.714,57.714,0,0,0,8.937,13.457c6.257.285,111.47.843,190.758.843,40.951,0,90.654-.145,94.884-.843a59.754,59.754,0,0,0,8.984-13.44A9.883,9.883,0,0,1,594.7.05C614.354.034,678.838.02,786.367.011V0h48.771a11.161,11.161,0,0,1,8.392,3.906A14.124,14.124,0,0,1,847,13.342a63.463,63.463,0,0,1-15.6,42.344C821.349,67,807.981,73.227,793.762,73.227Z" transform="translate(0 587.297)" fill="#4a90e2"/>
      </g>
    </g>
  </g>
</svg>
